 <svg  version="1.0" xmlns="http://www.w3.org/2000/svg"  width="300.000000pt" height="233.000000pt" viewBox="0 0 300.000000 233.000000"  preserveAspectRatio="xMidYMid meet">  <g transform="translate(0.000000,233.000000) scale(0.100000,-0.100000)" fill="#f4efe1" stroke="none"> <path d="M229 2320 c-1 -8 0 -71 2 -140 1 -69 3 -158 3 -197 0 -40 3 -67 8 -60 4 6 8 34 8 60 l0 48 90 -3 c59 -2 90 1 90 8 0 6 -25 9 -67 7 -96 -4 -116 2 -110 33 2 13 1 26 -3 29 -6 3 -5 98 1 115 1 3 0 10 -1 15 -10 48 -8 65 8 66 14 0 14 2 2 6 -8 3 -18 11 -22 17 -5 7 -8 6 -9 -4z"/> <path d="M770 2316 c0 -8 -6 -17 -12 -19 -8 -3 -5 -6 6 -6 12 -1 16 -6 12 -16 -3 -8 -1 -15 4 -15 6 0 10 16 10 35 0 19 -4 35 -10 35 -5 0 -10 -6 -10 -14z"/> <path d="M1248 2310 c-10 -11 -13 -22 -8 -25 6 -4 10 -15 10 -27 0 -17 -5 -20 -30 -16 -16 3 -30 1 -30 -4 0 -4 17 -8 38 -8 l37 0 1 50 c0 28 0 50 0 50 -1 0 -9 -9 -18 -20z"/> <path d="M1381 2318 c0 -10 -8 -18 -17 -18 -8 0 -13 -4 -10 -9 3 -5 22 -7 42 -5 43 4 58 14 21 14 -16 0 -27 7 -30 18 -4 16 -5 16 -6 0z"/> <path d="M1895 2290 c-4 -6 14 -10 46 -10 61 0 61 5 2 14 -24 3 -44 2 -48 -4z"/> <path d="M2101 2283 c0 -13 -6 -23 -12 -23 -6 0 -3 -7 6 -17 14 -13 18 -14 25 -2 5 7 5 16 1 19 -5 3 -11 14 -14 25 -4 18 -5 18 -6 -2z"/> <path d="M800 2240 c-33 -8 -33 -8 13 -7 26 0 47 4 47 9 0 9 -10 9 -60 -2z"/> <path d="M1365 2240 c-4 -6 -1 -10 4 -10 6 0 11 -9 11 -20 0 -14 5 -18 17 -13 10 4 12 8 6 10 -7 3 -10 10 -7 17 6 16 -23 30 -31 16z"/> <path d="M1450 2232 c0 -5 18 -9 40 -9 22 0 40 3 40 8 0 5 -18 9 -40 9 -22 0 -40 -4 -40 -8z"/> <path d="M1353 2173 c8 -7 98 -5 105 2 3 3 -21 5 -53 5 -32 0 -55 -3 -52 -7z"/> <path d="M2219 2173 c-1 -5 0 -21 1 -36 1 -15 -3 -34 -10 -42 -7 -8 -7 -15 -1 -19 5 -3 12 6 15 21 15 65 16 83 6 83 -5 0 -10 -3 -11 -7z"/> <path d="M2099 2115 c-1 -22 -3 -44 -4 -50 -2 -5 -4 -19 -5 -30 -1 -11 -4 -15 -7 -7 -2 6 -11 12 -19 12 -8 0 -14 5 -14 10 0 6 -7 10 -16 10 -13 0 -14 -3 -5 -14 10 -11 8 -15 -6 -18 -10 -2 -23 5 -30 17 -11 17 -12 18 -13 3 0 -22 -20 -24 -20 -3 0 11 -11 15 -42 13 l-43 -1 38 -4 c29 -3 37 -9 37 -24 0 -18 9 -19 208 -19 239 -1 363 -7 410 -21 31 -10 58 -43 54 -64 -1 -6 9 -71 22 -145 13 -74 21 -138 18 -142 -8 -7 -445 -138 -449 -134 -2 1 -13 49 -25 105 -16 75 -24 98 -30 85 -5 -12 -6 -4 -2 19 4 29 2 37 -7 32 -9 -6 -10 1 -5 27 11 61 -3 64 -166 32 -79 -15 -163 -27 -188 -26 -371 14 -595 23 -683 28 -88 5 -106 4 -102 -7 3 -8 -15 -75 -39 -150 l-43 -137 36 -6 c20 -3 52 -6 71 -6 19 0 44 -8 55 -16 18 -15 12 -16 -80 -13 -121 3 -164 -10 -166 -49 -2 -24 -2 -24 -6 -4 -5 26 -13 27 -84 6 -67 -20 -75 -24 -58 -34 8 -5 -6 -11 -35 -15 -26 -4 -54 -14 -62 -22 -9 -9 -26 -13 -44 -11 -16 2 -27 1 -24 -4 3 -4 1 -8 -4 -8 -5 0 -21 -11 -37 -24 -23 -20 -35 -23 -69 -18 -22 3 -51 5 -64 5 -27 -1 -67 -35 -87 -74 -18 -33 -16 -179 2 -179 8 0 13 22 15 63 l3 62 60 -3 c33 -1 62 -7 63 -12 2 -6 7 -8 11 -6 9 6 514 -73 521 -82 8 -11 32 -14 25 -2 -3 6 4 11 17 11 13 1 -22 10 -77 20 -113 21 -50 18 99 -5 55 -9 104 -20 110 -26 8 -8 3 -8 -17 -1 -16 6 -43 11 -60 10 -27 -1 -24 -3 18 -13 28 -7 56 -16 63 -20 7 -4 12 -2 12 6 1 8 6 6 15 -6 8 -11 15 -27 15 -35 0 -14 -2 -14 -11 -1 -9 12 -10 12 -5 -3 3 -10 6 -21 6 -23 0 -3 5 -2 11 2 15 9 2 -71 -18 -110 -14 -28 -15 -28 -81 -21 -80 8 -92 19 -93 89 -1 28 -5 65 -9 81 -5 18 -6 -3 -3 -52 4 -67 3 -84 -9 -88 -8 -3 -122 14 -254 38 -222 40 -240 45 -251 68 -10 18 -13 20 -13 7 0 -21 -35 -24 -88 -9 -24 7 -32 7 -29 -2 5 -15 107 -40 292 -72 83 -14 204 -37 270 -50 149 -29 227 -39 253 -31 48 16 71 179 31 230 -11 14 -27 26 -35 26 -19 0 -18 6 12 45 34 45 159 93 494 190 153 44 171 52 177 75 3 11 11 20 18 20 7 0 15 7 19 15 3 8 12 15 21 15 13 0 15 12 14 65 -2 58 -4 65 -23 66 -18 1 -18 2 4 8 20 5 25 14 27 41 0 19 -1 25 -4 13 -2 -12 -16 -26 -30 -30 -30 -10 -41 -57 -17 -80 19 -20 18 -45 -3 -41 -13 2 -19 -7 -25 -41 -4 -25 -11 -48 -16 -53 -8 -8 9 158 31 297 l12 79 135 28 c162 33 156 32 165 11 5 -15 4 -16 -6 -5 -7 6 -17 12 -21 12 -13 0 -9 -20 6 -35 7 -8 20 -44 27 -81 11 -55 15 -63 21 -43 4 14 5 3 2 -26 -3 -38 -2 -45 6 -30 8 16 9 11 5 -20 -4 -29 -3 -36 4 -25 9 12 11 10 12 -12 1 -16 2 -33 3 -40 1 -7 -30 -22 -69 -34 -38 -12 -65 -23 -60 -23 13 -1 215 56 240 68 11 6 100 33 198 62 146 43 177 56 177 71 0 10 4 18 9 18 5 0 3 14 -6 31 -8 16 -13 41 -10 54 2 14 1 22 -3 20 -5 -3 -10 13 -12 35 -2 23 1 40 7 40 5 0 2 5 -7 11 -24 14 -23 29 3 29 11 0 18 4 14 10 -3 5 -12 7 -20 3 -15 -5 -17 1 -18 44 0 12 -4 20 -8 17 -5 -3 -11 7 -15 21 -4 18 -13 25 -29 25 -33 0 -55 10 -55 25 0 9 -14 13 -45 13 -24 -1 -42 -5 -39 -10 7 -11 -4 -10 -43 4 -18 7 -33 18 -33 25 0 7 -4 13 -10 13 -5 0 -10 -8 -10 -19 0 -21 -41 -26 -72 -10 -12 6 -18 6 -18 0 0 -6 -6 -8 -14 -5 -8 3 -12 13 -10 22 4 13 2 12 -11 -3 -11 -14 -25 -19 -46 -17 -16 2 -37 -2 -45 -9 -11 -9 -18 -9 -26 -1 -8 8 -9 12 -1 12 13 0 15 64 3 94 -7 17 -9 13 -11 -19z m-609 -366 c157 -7 286 -12 286 -13 6 -4 -29 -263 -36 -270 -5 -5 -51 -3 -107 4 -54 6 -118 13 -143 14 -25 2 -90 7 -145 12 -106 9 -204 9 -245 -1 -17 -4 -22 -3 -15 4 6 5 24 11 40 14 17 2 -16 5 -71 6 l-102 1 29 78 c16 42 29 82 29 87 0 6 5 27 11 49 l11 39 86 -6 c48 -4 215 -12 372 -18z m305 -167 c-9 -86 -22 -168 -28 -181 -8 -17 -29 -30 -67 -42 -232 -73 -442 -144 -495 -168 -53 -24 -80 -48 -100 -88 -1 -1 -53 6 -116 16 -100 17 -495 72 -619 87 -68 8 -90 14 -90 23 0 16 61 31 126 31 44 0 73 6 96 19 18 11 155 55 303 99 l270 80 93 -5 c50 -3 92 -9 92 -13 0 -5 17 -6 38 -4 20 3 74 1 120 -4 76 -7 111 -1 60 11 -41 10 -298 29 -312 24 -8 -3 -20 1 -26 9 -15 17 5 18 151 4 196 -18 225 -20 204 -10 -20 9 -20 9 0 9 11 1 31 -5 45 -12 14 -7 48 -14 75 -15 28 -1 71 -5 98 -8 26 -3 47 -2 47 3 3 69 13 164 25 227 8 43 15 81 16 85 0 3 3 0 6 -7 2 -7 -3 -83 -12 -170z m-796 -126 c-9 -9 -108 -13 -103 -5 3 5 28 9 56 9 28 0 49 -2 47 -4z m-179 -35 c0 -9 -58 -36 -65 -30 -2 3 0 11 5 19 7 11 10 12 10 2 0 -10 4 -10 16 2 17 18 34 21 34 7z m-45 -302 c20 -5 9 -6 -30 -2 -33 3 -62 7 -64 9 -8 7 63 2 94 -7z"/> <path d="M1062 1664 c-25 -104 -25 -107 -13 -99 12 7 44 148 39 172 -2 10 -14 -23 -26 -73z"/> <path d="M1358 1724 c-7 -11 7 -162 16 -171 3 -4 6 27 5 68 0 73 -10 121 -21 103z"/> <path d="M1548 1652 c-38 -9 -68 -19 -68 -23 0 -4 17 -3 38 2 20 6 54 12 75 16 21 3 40 10 43 14 7 12 -8 10 -88 -9z"/> <path d="M1541 1441 c-7 -5 -11 -13 -8 -19 4 -5 -16 -12 -47 -15 -50 -5 -561 -162 -579 -178 -5 -4 20 -10 55 -14 34 -3 88 -11 118 -16 50 -8 64 -6 153 25 62 22 92 36 80 39 -12 4 -10 5 7 4 29 -1 133 23 127 30 -3 2 -24 -1 -48 -6 -57 -13 -308 -22 -288 -10 9 4 67 22 130 39 62 17 118 35 124 39 19 15 107 34 153 34 26 -1 84 -4 130 -8 54 -5 82 -4 82 3 0 14 -25 22 -63 21 -28 0 -29 -2 -12 -10 16 -7 12 -8 -14 -4 -18 3 -42 5 -52 5 -11 0 -19 4 -19 8 0 5 15 6 33 4 17 -3 30 -2 27 1 -3 3 -18 7 -35 9 -16 1 -32 8 -35 15 -3 8 -10 9 -19 4z m-276 -192 c-16 -5 -61 -6 -100 -2 -38 3 -67 2 -63 -2 4 -4 23 -7 42 -7 20 0 33 -4 30 -9 -7 -12 -84 -11 -84 1 0 6 -10 9 -22 7 -13 -2 -17 -2 -10 0 7 3 10 9 7 14 -4 5 42 9 112 8 86 0 110 -3 88 -10z"/> <path d="M1060 1386 c-312 -95 -355 -108 -364 -117 -6 -6 -3 -9 8 -9 24 0 528 160 541 171 15 14 0 11 -185 -45z"/> <path d="M555 1229 c22 -4 51 -8 65 -7 23 0 22 1 -5 8 -16 4 -46 8 -65 8 l-35 0 40 -9z"/> <path d="M657 1208 c-3 -12 -1 -16 6 -11 6 4 27 10 47 13 l35 6 -42 5 c-34 4 -43 1 -46 -13z"/> <path d="M785 1199 c22 -4 54 -8 70 -7 26 0 25 1 -10 9 -22 4 -53 8 -70 7 -26 0 -25 -1 10 -9z"/> <path d="M2370 2142 c0 -5 16 -9 35 -10 19 -1 35 3 35 8 0 6 -16 10 -35 10 -19 0 -35 -4 -35 -8z"/> <path d="M775 2132 c-12 -12 10 -22 46 -22 22 0 38 4 35 9 -6 9 -74 20 -81 13z"/> <path d="M2600 2118 c0 -15 -6 -29 -12 -31 -8 -3 -5 -6 5 -6 10 -1 15 -5 12 -11 -3 -5 -1 -10 4 -10 7 0 9 14 5 38 -7 45 -14 55 -14 20z"/> <path d="M1383 2055 c2 -5 16 -12 32 -13 16 -2 34 -11 40 -19 11 -14 12 -14 18 0 4 10 2 16 -6 14 -7 -1 -11 3 -10 9 1 7 -15 14 -37 16 -25 2 -39 0 -37 -7z"/> <path d="M1810 2053 c0 -7 -10 -13 -22 -13 -22 0 -22 0 -3 -20 18 -17 29 -19 88 -13 37 3 67 10 67 16 0 5 -7 7 -15 3 -8 -3 -15 -1 -15 4 0 15 -34 12 -56 -5 -10 -8 -26 -14 -34 -15 -12 0 -13 2 -1 9 10 7 11 13 2 27 -6 11 -11 13 -11 7z"/> <path d="M842 2043 c-18 -7 -4 -23 19 -23 12 0 19 5 17 12 -5 14 -18 18 -36 11z"/> <path d="M2553 2036 c-10 -11 -6 -15 23 -18 28 -3 34 -1 34 14 0 10 -4 18 -10 18 -5 0 -10 -4 -10 -10 0 -5 -5 -10 -11 -10 -5 0 -7 5 -4 10 9 15 -8 11 -22 -4z"/> <path d="M1650 2029 c0 -6 8 -8 19 -4 11 3 22 1 26 -5 3 -5 22 -10 42 -10 31 0 34 2 22 16 -8 10 -15 12 -17 5 -4 -12 -32 -15 -32 -3 0 4 -13 9 -30 10 -16 1 -30 -3 -30 -9z"/> <path d="M1250 1973 c0 -25 -4 -31 -15 -26 -10 3 -15 1 -13 -7 2 -7 -4 -14 -12 -16 -109 -26 -148 -38 -161 -50 -8 -8 -23 -14 -32 -14 -11 0 -14 -5 -10 -16 3 -9 8 -12 12 -5 11 17 160 60 306 86 77 14 143 29 148 34 5 5 25 8 45 6 21 -1 25 0 10 2 -14 2 -32 11 -38 19 -16 18 -30 18 -30 -1 0 -33 -70 -40 -70 -6 -1 10 -6 6 -16 -11 -8 -16 -22 -28 -32 -29 -9 0 -29 -3 -44 -5 -24 -4 -28 -1 -28 18 0 13 -5 30 -10 38 -7 11 -10 7 -10 -17z"/> <path d="M1653 1993 c-18 -2 -33 -8 -33 -12 0 -5 21 -5 48 0 26 4 58 10 72 12 32 5 -44 5 -87 0z"/> <path d="M2520 1878 l-36 -9 7 -57 c7 -62 -1 -82 -35 -82 -17 0 -18 -2 -6 -10 10 -6 22 -4 37 6 22 14 23 14 23 -21 0 -27 -4 -35 -18 -35 -23 0 -58 -25 -46 -32 5 -3 34 3 64 13 64 22 94 25 70 8 -11 -8 -11 -10 -1 -7 8 2 15 21 17 43 4 50 -18 188 -31 191 -6 1 -26 -2 -45 -8z m13 -43 c-4 -28 -2 -35 11 -35 9 0 17 -6 18 -12 8 -68 -4 -105 -13 -43 -6 36 -6 34 -8 -19 0 -33 -4 -56 -8 -53 -6 7 -9 34 -12 130 0 29 -5 46 -11 42 -5 -3 -10 -2 -10 4 0 9 15 18 32 20 4 1 4 -15 1 -34z"/> <path d="M2180 1847 c-25 -6 -38 -12 -30 -14 8 -1 40 3 70 11 30 8 44 14 30 14 -14 0 -45 -5 -70 -11z"/> <path d="M2241 1783 c2 -50 12 -56 97 -60 67 -3 82 -1 82 10 0 18 -31 32 -39 18 -9 -15 -61 -25 -61 -12 0 6 8 11 18 11 15 0 15 2 2 10 -11 8 -7 9 15 5 29 -6 29 -6 11 9 -25 20 -14 20 24 1 27 -14 30 -14 30 0 0 21 -41 28 -96 17 -31 -7 -55 -7 -66 -1 -14 8 -18 6 -17 -8z"/> <path d="M1980 1775 c-14 -8 -35 -19 -46 -26 -19 -10 -23 -23 -28 -108 -4 -53 -9 -127 -12 -166 -6 -63 -5 -68 10 -56 9 7 16 22 16 32 0 11 5 19 10 19 6 0 10 7 10 15 0 8 -7 15 -15 15 -23 0 -18 15 10 30 20 11 28 11 47 -2 15 -10 30 -12 43 -7 14 5 16 8 5 9 -8 2 -18 2 -22 1 -4 0 -5 8 -3 19 3 18 1 18 -41 5 -24 -7 -44 -10 -44 -6 0 10 94 43 160 56 49 10 55 14 55 35 0 23 -4 25 -57 28 l-58 3 0 52 c1 46 2 50 14 34 16 -21 86 -36 86 -18 0 6 -14 11 -31 11 -22 0 -32 5 -36 20 -6 24 -37 26 -73 5z m24 -56 c8 -69 14 -81 38 -68 14 8 23 8 31 0 6 -6 20 -11 32 -12 11 0 -27 -16 -84 -35 -57 -19 -106 -33 -108 -30 -6 5 35 76 43 76 3 0 2 -6 -2 -12 -5 -9 -2 -8 10 1 13 11 14 16 4 22 -7 5 -21 9 -30 9 -24 0 -23 17 3 30 12 7 18 18 15 26 -3 8 -2 13 2 10 5 -3 15 4 22 14 8 11 15 18 16 17 1 -1 5 -23 8 -48z"/> <path d="M1868 1743 c-18 -5 -19 -7 -22 -56 -1 -20 2 -26 12 -22 7 3 17 5 22 5 4 0 10 18 12 40 2 22 1 39 -2 39 -3 -1 -13 -3 -22 -6z"/> <path d="M813 1685 c0 -33 2 -45 4 -27 2 18 2 45 0 60 -2 15 -4 0 -4 -33z"/> <path d="M2276 1663 c4 -62 8 -81 19 -90 4 -4 5 -3 1 4 -6 12 24 23 102 39 27 5 32 11 31 33 0 14 -3 20 -6 14 -3 -8 -24 -13 -53 -13 -69 0 -81 6 -70 36 8 20 6 24 -8 24 -16 0 -18 -7 -16 -47z"/> <path d="M2125 1600 c-3 -5 -2 -10 4 -10 6 0 8 -7 5 -15 -4 -8 -1 -15 6 -15 10 0 10 -3 0 -15 -7 -8 -9 -15 -4 -15 5 0 2 -5 -6 -10 -12 -8 -11 -10 8 -10 24 0 27 13 16 69 -7 31 -18 39 -29 21z"/> <path d="M2690 1590 c-8 -6 -73 -29 -145 -51 -71 -23 -146 -49 -165 -59 -19 -9 -41 -15 -47 -13 -7 3 -13 -2 -13 -11 0 -9 -15 -18 -42 -24 -24 -6 -35 -10 -25 -11 32 -2 17 -20 -25 -32 -27 -7 -44 -7 -46 -1 -2 6 -22 3 -50 -8 -93 -35 -237 -82 -252 -83 -8 0 -23 4 -33 8 -13 6 -20 3 -23 -11 -3 -11 -23 -27 -45 -36 -23 -10 -38 -21 -35 -26 2 -4 -22 -16 -54 -25 -33 -10 -62 -22 -65 -28 -4 -5 -3 -9 1 -9 4 0 144 45 310 101 167 55 309 97 315 93 7 -4 9 -3 6 3 -8 12 88 47 109 39 8 -3 13 -2 9 3 -3 5 -2 11 2 14 5 2 2 2 -5 0 -8 -2 -19 0 -24 3 -6 4 17 15 51 26 33 10 61 23 61 28 0 5 12 9 28 9 15 -1 69 13 120 30 51 17 94 31 95 31 2 0 4 -11 5 -25 1 -16 -5 -28 -18 -35 -28 -15 -25 -32 4 -24 24 6 24 5 15 -36 -5 -23 -7 -45 -4 -50 3 -5 -2 -16 -11 -24 -14 -15 -14 -16 5 -16 17 0 19 -5 16 -37 l-5 -38 11 40 c11 44 7 212 -7 262 -7 26 -12 30 -24 23z"/> <path d="M2010 1486 c0 -31 -14 -40 -40 -26 -15 8 -20 8 -20 -1 0 -7 -8 -18 -17 -26 -17 -14 -17 -14 2 -10 11 3 65 19 120 36 55 17 108 31 118 31 9 0 17 4 17 9 0 5 -12 7 -27 4 -16 -3 -45 -6 -65 -6 -23 -1 -32 -5 -25 -10 8 -6 5 -7 -6 -3 -10 3 -21 6 -23 6 -3 0 -2 5 1 10 3 6 -3 10 -14 10 -16 0 -21 -6 -21 -24z"/> <path d="M2505 1434 c-82 -30 -325 -113 -540 -185 -214 -72 -394 -134 -399 -136 -4 -3 6 -12 23 -20 17 -9 28 -19 25 -24 -3 -5 2 -9 10 -9 9 0 16 -4 16 -10 0 -5 10 -10 23 -9 l22 0 -21 9 c-28 11 -40 30 -24 40 6 4 11 11 10 16 -1 5 15 15 36 22 22 8 53 20 71 28 18 7 35 9 38 5 3 -5 -1 -12 -7 -14 -10 -4 -10 -6 0 -6 7 -1 20 6 29 14 8 8 18 13 23 10 4 -3 10 4 13 14 3 14 13 19 36 19 16 -1 28 -5 25 -10 -3 -5 13 1 35 13 22 11 45 18 51 14 5 -3 10 -1 10 4 0 6 5 11 10 11 6 0 24 10 40 21 16 13 36 19 45 15 9 -3 14 -2 11 3 -7 11 100 44 124 38 13 -3 17 -1 13 10 -4 9 0 13 8 12 8 -2 23 2 34 8 11 6 42 14 68 18 43 7 50 5 63 -14 9 -12 20 -18 26 -15 7 4 7 9 0 13 -6 3 -14 19 -17 34 -6 21 -4 27 9 27 8 0 18 -11 22 -25 4 -16 10 -22 18 -17 6 4 27 12 46 18 34 12 34 12 7 13 -17 1 -26 5 -22 12 4 6 13 8 21 5 8 -3 14 1 14 9 0 8 20 18 55 26 42 9 55 16 55 31 0 10 -1 17 -2 17 -2 -1 -70 -26 -153 -55z"/> <path d="M447 1410 c12 -5 34 -5 50 0 24 7 21 8 -22 9 -38 0 -45 -2 -28 -9z"/> <path d="M533 1414 c3 -3 22 -9 42 -14 30 -7 34 -6 24 6 -6 8 -25 14 -42 14 -17 0 -28 -3 -24 -6z"/> <path d="M1845 1400 c-19 -8 -19 -9 -1 -9 14 -1 16 -4 7 -14 -14 -18 -5 -26 20 -20 20 6 27 23 8 23 -6 0 -9 7 -5 15 6 17 0 18 -29 5z"/> <path d="M2515 1311 c-40 -24 -56 -50 -104 -167 -22 -53 -53 -110 -68 -126 -29 -30 -84 -59 -299 -153 -153 -67 -238 -107 -244 -114 -3 -3 -9 -7 -15 -8 -5 -1 -17 -4 -26 -8 -13 -5 -17 3 -21 42 -5 53 -45 150 -75 182 -42 45 -117 45 -193 -2 -50 -31 -74 -59 -124 -147 -25 -42 -56 -84 -70 -94 -24 -15 -37 -56 -17 -56 9 0 25 30 23 42 -1 5 2 7 7 5 13 -3 68 63 91 110 39 83 137 153 211 149 29 -1 39 -9 67 -50 31 -47 53 -104 45 -118 -6 -12 -32 3 -38 22 -10 31 -145 78 -145 50 0 -5 -15 -16 -32 -25 -48 -23 -71 -42 -64 -53 3 -6 -1 -13 -9 -16 -8 -3 -14 -9 -13 -13 1 -4 -6 -23 -16 -41 -9 -18 -15 -39 -12 -45 2 -7 5 -5 5 5 1 26 88 134 127 157 44 26 70 26 111 1 34 -20 58 -59 79 -125 8 -25 13 -32 13 -18 1 19 5 21 41 16 40 -6 112 21 148 55 7 6 20 12 28 12 8 0 33 9 56 20 22 11 44 17 49 15 4 -3 9 0 11 5 3 10 24 17 56 19 7 1 11 5 8 10 -3 5 15 14 40 21 25 7 48 19 51 27 3 7 11 13 18 13 7 0 19 9 26 19 8 11 25 21 39 23 14 2 28 8 32 13 4 6 8 -3 8 -20 l1 -30 16 30 c9 17 27 41 41 55 14 14 22 18 17 10 -5 -9 -4 -12 1 -7 5 5 9 14 9 20 0 32 59 157 86 185 36 37 59 40 84 12 10 -11 26 -20 37 -20 10 0 18 -5 18 -11 0 -6 -7 -9 -14 -6 -22 9 -8 -24 22 -51 26 -23 40 -23 26 0 -5 7 -9 18 -10 23 -12 78 -29 127 -51 149 -31 31 -48 32 -88 7z m61 -25 c23 -24 17 -37 -13 -30 -41 10 -45 14 -32 30 15 18 27 18 45 0z"/> <path d="M2800 1300 c-21 -16 -23 -21 -12 -32 11 -11 12 -10 7 3 -4 11 1 18 17 23 35 9 38 8 38 -15 0 -11 -4 -18 -8 -15 -12 7 -53 -24 -47 -35 10 -15 38 -11 32 5 -4 10 2 16 16 18 28 4 29 36 2 54 -17 11 -24 10 -45 -6z"/> <path d="M2720 1248 c0 -7 -3 -24 -7 -37 -5 -18 -2 -22 12 -20 21 5 28 69 8 69 -7 0 -13 -6 -13 -12z"/> <path d="M1440 1169 c-47 -17 -111 -39 -143 -51 -32 -11 -61 -27 -64 -34 -3 -8 -14 -14 -24 -14 -12 0 -19 -7 -19 -20 0 -11 7 -20 15 -20 9 0 12 -6 8 -15 -3 -10 0 -15 8 -13 8 2 13 -3 11 -10 -3 -19 44 -38 61 -24 7 6 22 10 34 9 15 -1 19 -5 12 -17 -10 -20 -29 -103 -21 -95 3 3 16 29 28 58 23 56 96 123 146 134 15 3 35 17 44 31 13 20 14 24 2 20 -8 -4 -56 -19 -107 -34 -83 -25 -92 -30 -89 -49 4 -18 -3 -24 -39 -37 -43 -16 -43 -16 -43 8 0 14 -6 24 -14 24 -23 0 -11 33 15 41 13 4 95 29 182 55 128 39 157 51 157 66 0 28 -60 23 -160 -13z"/> <path d="M2512 1168 c-27 -29 -61 -106 -62 -138 0 -14 -4 -31 -9 -38 -10 -16 8 -114 23 -124 6 -4 7 -8 2 -8 -5 0 -2 -8 7 -18 18 -20 7 -50 -14 -37 -16 11 -159 14 -159 4 0 -4 20 -11 45 -15 25 -3 48 -10 51 -15 7 -12 51 -11 98 2 45 12 90 53 82 74 -3 8 0 14 7 12 7 -1 19 27 30 68 20 77 18 167 -4 204 -17 27 -54 37 -74 21 -10 -8 -15 -9 -15 -2 0 6 8 16 18 21 9 6 12 11 6 11 -6 0 -20 -10 -32 -22z m70 -58 c10 -19 18 -51 18 -71 0 -47 -26 -133 -45 -149 -8 -7 -12 -16 -9 -21 3 -5 -3 -6 -13 -2 -16 6 -16 5 -4 -10 17 -21 6 -35 -16 -21 -38 24 -54 169 -27 246 7 20 10 39 7 42 -4 3 -1 6 6 6 7 0 10 4 7 9 -4 5 9 9 26 8 27 -2 36 -9 50 -37z"/> <path d="M2515 1118 c-3 -9 -1 -26 5 -38 6 -12 10 -42 9 -68 -2 -26 1 -47 6 -47 16 0 17 100 2 136 -12 27 -16 31 -22 17z"/> <path d="M290 1111 c0 -76 10 -102 46 -117 18 -8 44 -14 57 -14 21 0 25 6 31 46 3 26 5 61 5 78 -2 28 -2 28 -9 -9 l-7 -40 -2 37 c-1 44 -21 58 -80 58 -41 0 -41 0 -41 -39z m90 9 c23 -23 28 -88 8 -108 -33 -33 -78 6 -78 68 0 58 33 77 70 40z"/> <path d="M2903 1123 c20 -2 35 -8 32 -13 -3 -4 2 -10 10 -14 9 -3 15 0 15 9 0 7 8 16 18 18 9 3 -12 4 -48 4 -37 0 -49 -2 -27 -4z"/> <path d="M725 1077 c56 -12 74 -13 64 -3 -2 2 -31 7 -64 10 l-60 5 60 -12z"/> <path d="M2295 1068 c-16 -5 -50 -19 -75 -31 -25 -11 -48 -20 -53 -19 -4 1 -32 -12 -62 -29 -30 -17 -57 -30 -60 -30 -15 3 -55 -12 -55 -21 0 -5 -4 -7 -8 -4 -10 6 -93 -33 -104 -48 -5 -7 -11 -6 -18 4 -8 13 -10 12 -10 -3 0 -9 -3 -16 -7 -15 -14 4 -53 -13 -53 -23 0 -5 -6 -9 -14 -9 -13 0 -31 -29 -23 -37 2 -2 24 8 49 22 24 13 134 62 244 109 256 108 314 134 314 140 0 9 -31 6 -65 -6z"/> <path d="M820 1061 c14 -5 38 -9 54 -10 16 -1 38 -9 49 -18 19 -17 20 -17 8 5 -7 12 -21 22 -34 22 -12 0 -40 2 -62 5 -32 4 -35 3 -15 -4z"/> <path d="M980 974 c0 -44 4 -85 9 -93 6 -9 30 -14 73 -15 l63 -1 3 40 c8 96 -15 128 -100 140 l-48 7 0 -78z m98 34 c41 -45 37 -119 -9 -133 -18 -6 -29 -1 -51 24 -32 36 -37 84 -11 113 22 24 45 23 71 -4z"/> <path d="M1515 1018 c-47 -17 -105 -60 -133 -98 l-26 -35 39 36 c60 55 132 89 197 92 31 1 51 5 45 9 -17 11 -87 8 -122 -4z"/> <path d="M2815 1010 c-4 -6 12 -10 42 -10 35 0 44 3 33 10 -20 13 -67 13 -75 0z"/> <path d="M254 985 c2 -11 7 -28 11 -37 6 -15 2 -18 -23 -18 -60 0 -69 -15 -12 -20 48 -4 55 -8 58 -27 2 -13 7 -23 12 -23 4 0 6 10 3 23 -5 20 -4 21 8 5 10 -13 25 -17 52 -15 20 2 37 -1 37 -7 0 -6 4 -6 11 1 10 10 63 3 109 -14 8 -4 18 -6 22 -5 6 1 70 -11 227 -44 14 -3 44 -7 65 -9 39 -5 85 -16 119 -30 12 -5 17 -2 17 9 0 9 6 16 13 17 6 0 -49 11 -123 24 -74 13 -209 39 -300 59 -91 19 -166 31 -168 26 -2 -4 -20 -4 -40 2 -38 11 -76 44 -93 82 -9 19 -9 19 -5 1z"/> <path d="M514 989 c-6 -11 67 -30 166 -44 25 -3 53 -8 63 -11 16 -5 15 -2 -4 20 -23 27 -41 37 -19 12 9 -12 8 -15 -9 -13 -12 1 -21 5 -21 10 0 5 -11 7 -25 5 -14 -3 -25 -1 -25 4 0 6 -8 7 -17 4 -9 -4 -20 -1 -25 6 -5 8 -8 9 -8 2 0 -7 -10 -9 -25 -6 -14 2 -23 8 -20 11 2 4 -3 8 -11 8 -8 0 -17 -4 -20 -8z"/> <path d="M1845 988 c-8 -21 -3 -48 9 -51 13 -3 17 34 6 52 -8 14 -9 14 -15 -1z"/> <path d="M800 971 c16 -12 33 -18 47 -15 12 3 28 2 35 -2 21 -13 35 -13 35 1 0 8 -19 16 -46 20 -25 3 -57 9 -71 12 l-25 5 25 -21z"/> <path d="M770 942 c0 -14 9 -18 61 -25 23 -3 36 -1 36 6 0 7 -17 12 -41 11 -23 0 -44 5 -48 10 -5 7 -8 7 -8 -2z"/> <path d="M236 873 c-2 -3 -28 -5 -56 -5 -28 1 -48 -3 -45 -8 3 -5 18 -8 34 -8 15 1 33 -2 40 -6 6 -4 11 -2 11 3 0 6 7 11 15 11 8 0 15 -4 15 -10 0 -5 6 -10 13 -10 20 0 16 28 -4 33 -10 3 -20 3 -23 0z"/> <path d="M395 841 c-11 -5 -40 -7 -65 -5 -45 4 -45 4 -10 -6 19 -6 61 -12 93 -15 32 -2 72 -11 90 -19 41 -19 394 -89 412 -82 8 3 15 1 17 -4 3 -9 118 -33 221 -47 39 -5 47 -3 47 10 0 23 -19 31 -65 28 -52 -2 -144 15 -164 32 -9 7 -65 21 -126 31 -60 10 -168 31 -240 48 -163 36 -185 40 -210 29z"/> <path d="M1173 827 c-30 -38 -57 -48 -120 -42 -67 6 -61 0 10 -10 37 -5 47 -10 47 -25 0 -24 10 -30 35 -19 11 4 14 8 8 8 -19 1 -15 22 8 42 11 10 21 24 23 31 1 7 5 19 9 26 14 21 -1 13 -20 -11z"/> <path d="M238 810 c3 -24 10 -29 45 -34 23 -4 220 -45 437 -91 494 -104 466 -99 449 -78 -12 14 -12 17 0 21 8 3 -84 25 -205 49 -400 80 -699 144 -715 152 -12 7 -14 4 -11 -19z"/> <path d="M1537 782 c-27 -12 -37 -22 -33 -34 2 -10 1 -17 -3 -16 -24 3 -35 -9 -61 -66 -23 -50 -30 -78 -30 -128 0 -37 -5 -70 -12 -77 -7 -8 -8 -11 -2 -8 7 4 16 -10 23 -34 7 -22 16 -37 22 -33 5 3 7 15 3 27 -5 17 -2 16 19 -8 21 -24 32 -30 66 -29 35 1 41 -1 41 -20 0 -17 -2 -18 -10 -6 -8 13 -10 12 -10 -2 0 -10 -4 -18 -10 -18 -5 0 -10 8 -11 18 0 10 -3 12 -6 4 -2 -6 -9 -10 -14 -6 -5 3 -9 0 -9 -5 0 -6 -7 -11 -15 -11 -8 0 -15 -4 -15 -9 0 -5 -10 -7 -22 -3 -21 5 -22 4 -8 -13 14 -17 13 -18 -5 -11 -37 16 -63 18 -69 7 -4 -6 -12 -11 -17 -11 -6 0 -8 4 -5 9 4 5 -3 7 -15 4 -14 -4 -17 -8 -9 -13 9 -6 9 -9 -1 -14 -8 -3 -2 -4 13 -2 15 1 25 0 23 -4 -7 -12 84 -1 150 18 72 21 133 76 154 140 10 31 20 42 35 43 16 1 17 2 4 6 -14 3 -16 11 -11 36 3 18 10 33 14 35 5 2 2 10 -5 18 -8 8 -18 36 -21 62 -3 26 -10 57 -16 70 -11 27 -69 102 -78 101 -3 0 -23 -8 -44 -17z m57 -13 c-3 -5 -10 -7 -15 -3 -5 3 -21 -2 -34 -10 -15 -10 -25 -12 -25 -6 0 6 15 17 32 25 34 14 53 11 42 -6z m16 -59 c52 -55 51 -158 -2 -250 -47 -83 -98 -94 -155 -33 -19 20 -23 36 -24 105 -1 54 2 83 10 86 6 2 9 8 5 13 -3 5 0 9 6 9 6 0 8 5 5 10 -3 6 1 13 9 16 9 3 13 10 10 15 -3 5 0 9 6 9 6 0 8 5 4 12 -4 6 -3 8 4 4 6 -3 14 -1 17 5 8 12 42 27 63 28 8 1 27 -13 42 -29z"/> <path d="M1510 695 c-10 -12 -9 -15 4 -15 11 0 14 5 10 12 -4 6 -3 8 2 5 6 -3 16 -29 24 -56 7 -28 18 -51 22 -51 5 0 6 -5 3 -10 -4 -6 -10 -8 -15 -5 -4 3 -13 -1 -19 -9 -7 -8 -22 -12 -34 -9 -16 3 -18 2 -8 -5 10 -7 10 -14 2 -30 -13 -25 -14 -32 -2 -32 5 0 11 9 14 20 3 11 12 20 21 20 9 0 16 4 16 9 0 5 6 11 14 14 8 3 2 -16 -16 -50 -17 -33 -24 -53 -16 -51 19 6 49 71 56 120 4 31 2 39 -7 34 -9 -6 -11 1 -5 28 10 56 -35 98 -66 61z"/> <path d="M1456 604 c-3 -9 -3 -20 0 -26 4 -6 1 -14 -7 -18 -10 -7 -10 -11 0 -24 19 -22 31 -10 31 30 0 19 5 34 10 34 6 0 10 5 10 10 0 16 -37 11 -44 -6z"/> <path d="M1607 553 c-4 -23 -9 -50 -12 -60 -3 -10 2 -3 10 16 9 18 15 45 13 60 -3 21 -5 18 -11 -16z"/> <path d="M980 769 c0 -11 30 -39 40 -39 5 0 7 7 3 16 -4 12 -2 15 8 12 8 -3 13 -11 12 -17 -2 -6 2 -11 7 -11 6 0 10 6 10 13 0 9 3 8 9 -2 5 -7 14 -10 20 -7 22 14 10 22 -49 32 -33 6 -60 7 -60 3z"/> <path d="M2188 772 c11 -7 8 -11 -11 -16 -14 -3 -34 -3 -44 0 -10 3 -5 -2 12 -12 20 -11 30 -13 33 -5 2 6 10 11 19 11 18 0 12 22 -8 28 -11 3 -12 2 -1 -6z"/> <path d="M238 759 c7 -8 18 -14 25 -14 7 0 31 -4 55 -9 33 -6 43 -13 47 -32 3 -13 8 -36 11 -51 10 -50 51 -108 91 -129 21 -10 40 -22 43 -25 9 -10 105 -10 130 0 20 9 16 10 -23 5 -46 -6 -97 7 -123 31 -6 5 -21 17 -33 25 -11 8 -21 20 -21 27 0 7 -4 13 -9 13 -5 0 -15 16 -21 36 -14 40 0 60 29 45 9 -5 22 -6 29 -4 7 3 19 0 26 -6 8 -7 35 -12 61 -13 30 0 45 -4 42 -12 -3 -7 3 -12 12 -13 94 -8 134 -17 139 -35 6 -24 16 -23 33 3 12 17 18 19 42 10 16 -6 39 -11 53 -11 24 0 66 -28 59 -40 -2 -4 2 -7 10 -7 8 0 15 7 15 16 0 13 2 14 9 2 5 -8 16 -11 26 -8 13 6 15 3 10 -15 -7 -20 -5 -21 34 -15 23 3 39 1 35 -4 -3 -5 28 -9 71 -9 73 0 76 1 86 27 5 15 9 36 7 47 -1 12 1 26 5 32 3 6 -2 19 -13 29 -18 16 -20 17 -26 1 -4 -9 -4 -36 -2 -60 l5 -42 -36 8 c-20 5 -187 40 -371 79 -306 64 -518 112 -559 126 -13 5 -14 4 -3 -8z"/> <path d="M155 715 c-28 -22 -86 -36 -100 -25 -16 13 -55 1 -55 -17 0 -13 10 -14 62 -9 35 4 68 12 75 18 7 5 16 7 21 4 6 -3 12 5 14 19 3 14 5 25 4 25 0 0 -10 -7 -21 -15z"/> <path d="M2163 713 c12 -3 16 -11 12 -23 -3 -11 -1 -30 6 -42 12 -23 12 -23 -9 -5 -13 12 -22 15 -27 8 -3 -6 -1 -11 4 -11 6 0 11 -6 11 -14 0 -8 8 -13 17 -12 20 3 63 -44 63 -69 0 -9 -4 -14 -9 -10 -5 3 -12 1 -16 -5 -4 -6 8 -10 30 -10 22 0 34 4 30 10 -3 6 4 14 17 19 l23 10 -22 0 c-13 1 -23 -3 -23 -9 0 -5 -5 -10 -11 -10 -6 0 -9 8 -7 18 2 9 -4 24 -15 34 -11 10 -14 19 -7 23 17 11 11 23 -9 18 -15 -4 -20 3 -25 31 -4 20 -4 41 -1 46 4 6 -6 10 -22 9 -18 -1 -21 -3 -10 -6z"/> <path d="M2780 710 c19 -5 41 -4 50 0 10 6 -1 9 -35 9 -48 -1 -49 -1 -15 -9z"/> <path d="M2584 669 c-3 -5 4 -9 15 -9 11 0 23 -4 26 -10 9 -14 27 -12 23 2 -5 15 -56 29 -64 17z"/> <path d="M230 663 c-66 -6 -80 -12 -73 -30 4 -10 2 -14 -5 -9 -6 3 -13 2 -17 -4 -4 -6 6 -10 23 -10 22 0 29 4 28 17 -1 15 9 18 59 21 33 2 63 7 67 10 8 8 -29 10 -82 5z"/> <path d="M1840 654 c0 -8 -4 -13 -8 -10 -4 2 -14 0 -22 -5 -11 -7 -7 -9 15 -7 19 2 31 9 33 21 2 9 -1 17 -7 17 -6 0 -11 -7 -11 -16z"/> <path d="M120 561 c-69 -9 -34 -18 40 -11 36 4 57 8 48 8 -9 1 -22 4 -30 5 -7 2 -33 1 -58 -2z"/> <path d="M2713 555 c0 -8 4 -15 9 -15 4 0 8 5 8 10 0 6 7 10 17 10 14 0 14 -2 -2 -20 -19 -21 -11 -27 14 -11 8 5 11 16 8 25 -8 21 -54 21 -54 1z"/> <path d="M283 538 c2 -7 10 -12 16 -10 7 1 21 -3 32 -9 25 -13 89 -19 89 -8 0 4 -18 10 -40 14 -22 4 -42 11 -46 16 -8 14 -56 11 -51 -3z"/> <path d="M43 503 c-12 -2 -27 -11 -33 -19 -21 -24 63 -19 85 6 18 19 17 20 -6 19 -13 -1 -34 -4 -46 -6z"/> <path d="M2247 504 c-3 -3 -1 -11 4 -18 5 -6 16 -20 23 -30 8 -11 18 -16 25 -11 9 5 7 11 -9 22 -12 8 -19 21 -16 29 5 14 -15 20 -27 8z"/> <path d="M1865 471 c-3 -6 -11 -9 -16 -6 -5 4 -16 2 -25 -3 -22 -13 128 -24 158 -12 22 8 22 9 -7 10 -30 2 -43 4 -81 15 -12 4 -25 2 -29 -4z"/> <path d="M2236 453 c-4 -10 -1 -20 10 -26 9 -5 26 -19 38 -31 11 -11 24 -20 28 -19 14 5 28 -37 23 -66 -4 -25 -2 -28 15 -24 14 4 20 0 20 -11 0 -11 -4 -14 -12 -10 -9 5 -8 2 1 -9 11 -13 17 -15 28 -6 11 10 11 14 -2 29 -18 20 -20 40 -2 40 8 0 7 3 -3 9 -8 6 -18 7 -22 5 -8 -5 -12 15 -9 51 2 15 0 17 -7 6 -8 -11 -11 -11 -18 0 -5 8 -22 19 -39 25 -22 7 -29 16 -28 32 3 26 -12 29 -21 5z"/> <path d="M593 446 c13 -10 16 -21 12 -39 -4 -14 -3 -27 2 -30 4 -3 9 11 10 31 2 34 -9 52 -32 52 -5 -1 -2 -7 8 -14z"/> <path d="M2426 341 c-3 -4 4 -15 15 -24 14 -12 18 -24 13 -42 -5 -19 -2 -25 11 -25 13 0 16 5 10 23 -3 12 -9 32 -12 44 -5 22 -29 38 -37 24z"/> <path d="M1755 329 c-88 -13 -90 -19 -5 -14 41 2 82 5 90 5 13 0 13 1 0 10 -8 5 -17 9 -20 9 -3 -1 -32 -5 -65 -10z"/> <path d="M1196 314 c-4 -10 -2 -13 7 -7 6 4 19 6 29 5 9 -2 19 2 23 8 4 6 -5 10 -23 10 -18 0 -32 -6 -36 -16z"/> <path d="M1943 323 c48 -2 126 -2 175 0 48 1 8 3 -88 3 -96 0 -136 -2 -87 -3z"/> <path d="M1056 301 c-15 -2 -16 -5 -5 -12 11 -7 11 -9 -3 -9 -10 0 -18 5 -18 10 0 13 -18 12 -55 -4 -28 -12 -26 -13 45 -14 51 -1 70 2 60 8 -11 7 -5 10 25 11 22 0 49 4 60 9 20 8 -67 9 -109 1z"/> <path d="M1215 276 c-22 -15 -26 -16 -53 -16 -24 0 -59 -26 -49 -36 4 -5 11 -4 15 2 8 12 99 46 125 45 9 0 17 4 17 10 0 14 -33 11 -55 -5z"/> <path d="M1077 236 c-3 -7 -24 -16 -48 -20 -33 -5 -40 -9 -30 -19 8 -8 14 -9 19 -1 4 6 23 14 43 18 22 4 36 12 36 21 0 19 -13 20 -20 1z"/> <path d="M2310 232 c0 -5 9 -17 20 -27 20 -18 25 -11 14 19 -6 17 -34 23 -34 8z"/> <path d="M2375 213 c-15 -12 -16 -14 -3 -10 9 3 27 -2 40 -13 18 -15 21 -21 11 -31 -10 -10 -13 -10 -13 -1 0 7 -6 12 -14 12 -8 0 -17 6 -19 13 -3 7 -6 5 -6 -5 -1 -10 5 -18 13 -18 7 0 19 -7 26 -15 7 -8 16 -12 21 -9 5 3 8 -5 6 -18 -1 -13 3 -22 9 -21 7 1 14 -7 17 -17 3 -11 1 -18 -4 -14 -5 3 -9 0 -9 -5 0 -6 8 -11 18 -11 26 0 26 57 -2 64 -11 3 -17 8 -13 12 4 4 1 14 -6 22 -9 12 -9 16 0 19 8 3 1 16 -18 34 -35 34 -29 32 -54 12z"/> <path d="M795 190 c-39 -8 -39 -8 12 -7 29 0 50 4 47 9 -3 4 -8 7 -12 7 -4 -1 -25 -5 -47 -9z"/> <path d="M913 154 c-28 -20 -63 -36 -77 -36 -14 0 -26 -4 -26 -8 0 -15 -182 -60 -265 -65 -89 -6 -92 -7 -52 -15 21 -4 60 -3 85 3 26 5 61 11 77 12 84 9 251 75 315 125 45 35 -2 22 -57 -16z"/> <path d="M1578 164 c18 -12 26 -13 37 -4 8 6 19 9 25 5 5 -3 10 -1 10 4 0 6 -21 11 -47 11 -46 0 -47 0 -25 -16z"/> <path d="M1540 129 c0 -6 -9 -9 -20 -6 -11 3 -20 1 -20 -5 0 -14 83 -5 88 10 2 7 -6 12 -22 12 -14 0 -26 -5 -26 -11z"/> <path d="M545 120 c-4 -6 -11 -8 -16 -5 -5 3 -6 -1 -3 -9 4 -12 0 -16 -17 -17 -13 0 -18 -3 -11 -6 18 -7 64 6 57 16 -3 5 0 11 7 13 9 3 9 6 1 11 -7 4 -14 3 -18 -3z"/> <path d="M1858 73 c12 -2 22 -9 22 -15 0 -7 4 -7 13 0 6 5 21 12 32 15 11 2 -5 5 -35 4 -30 0 -45 -2 -32 -4z"/> </g> </svg> 